<svg width="129" height="50" viewBox="0 0 129 50" fill="none" xmlns="http://www.w3.org/2000/svg">
<rect x="1" y="1" width="47.3639" height="47.5521" stroke="white" stroke-width="1.67733"/>
<path d="M8.27594 31.6769V18.9639H13.346C14.2775 18.9639 15.0545 19.1025 15.6769 19.3798C16.2994 19.657 16.7672 20.0419 17.0805 20.5344C17.3937 21.0227 17.5504 21.5855 17.5504 22.2228C17.5504 22.7194 17.4514 23.156 17.2536 23.5326C17.0557 23.9051 16.7837 24.2113 16.4374 24.4513C16.0953 24.6872 15.7037 24.8548 15.2627 24.9541V25.0783C15.745 25.099 16.1963 25.2355 16.6167 25.488C17.0413 25.7404 17.3855 26.0942 17.6493 26.5495C17.9131 27.0005 18.045 27.5385 18.045 28.1634C18.045 28.838 17.8781 29.4401 17.5442 29.9698C17.2144 30.4954 16.726 30.9113 16.0788 31.2175C15.4317 31.5238 14.6341 31.6769 13.686 31.6769H8.27594ZM10.9532 29.4794H13.1357C13.8818 29.4794 14.4259 29.3366 14.768 29.0511C15.1102 28.7614 15.2812 28.3765 15.2812 27.8965C15.2812 27.5447 15.1967 27.2344 15.0277 26.9654C14.8587 26.6964 14.6176 26.4853 14.3043 26.3322C13.9952 26.1791 13.6263 26.1025 13.1976 26.1025H10.9532V29.4794ZM10.9532 24.2837H12.9379C13.3047 24.2837 13.6304 24.2196 13.9148 24.0913C14.2033 23.9589 14.43 23.7726 14.5949 23.5326C14.7639 23.2926 14.8484 23.005 14.8484 22.6698C14.8484 22.2104 14.6856 21.84 14.36 21.5586C14.0385 21.2772 13.5809 21.1365 12.9874 21.1365H10.9532V24.2837Z" fill="white"/>
<path d="M19.7871 31.6769V18.9639H22.4643V29.4608H27.8929V31.6769H19.7871Z" fill="white"/>
<path d="M29.6659 31.6769V18.9639H32.3431V24.5693H32.51L37.0669 18.9639H40.2758L35.5768 24.6562L40.3315 31.6769H37.1287L33.6601 26.4501L32.3431 28.0641V31.6769H29.6659Z" fill="white"/>
<path d="M59.0952 31.1324V18.4194H64.1652C65.0968 18.4194 65.8738 18.5581 66.4962 18.8353C67.1186 19.1126 67.5865 19.4975 67.8997 19.9899C68.213 20.4782 68.3696 21.0411 68.3696 21.6784C68.3696 22.175 68.2707 22.6116 68.0729 22.9882C67.875 23.3606 67.603 23.6668 67.2567 23.9069C66.9146 24.1428 66.523 24.3104 66.082 24.4097V24.5338C66.5642 24.5545 67.0156 24.6911 67.436 24.9435C67.8606 25.196 68.2048 25.5498 68.4686 26.005C68.7324 26.4561 68.8643 26.9941 68.8643 27.619C68.8643 28.2935 68.6973 28.8956 68.3635 29.4254C68.0337 29.9509 67.5453 30.3668 66.8981 30.6731C66.251 30.9793 65.4534 31.1324 64.5053 31.1324H59.0952ZM61.7724 28.935H63.955C64.7011 28.935 65.2452 28.7922 65.5873 28.5066C65.9294 28.217 66.1005 27.8321 66.1005 27.352C66.1005 27.0003 66.016 26.6899 65.847 26.4209C65.678 26.1519 65.4369 25.9409 65.1236 25.7877C64.8144 25.6346 64.4455 25.5581 64.0168 25.5581H61.7724V28.935ZM61.7724 23.7393H63.7572C64.124 23.7393 64.4497 23.6751 64.7341 23.5468C65.0226 23.4144 65.2493 23.2282 65.4142 22.9882C65.5832 22.7481 65.6677 22.4605 65.6677 22.1253C65.6677 21.666 65.5049 21.2956 65.1792 21.0142C64.8577 20.7328 64.4002 20.592 63.8066 20.592H61.7724V23.7393Z" fill="white"/>
<path d="M70.7247 31.1324V18.4194H73.402V28.9163H78.8306V31.1324H70.7247Z" fill="white"/>
<path d="M80.722 31.1324V18.4194H83.3992V24.0248H83.5661L88.123 18.4194H91.3319L86.6329 24.1117L91.3876 31.1324H88.1848L84.7162 25.9057L83.3992 27.5196V31.1324H80.722Z" fill="white"/>
<path d="M92.8446 31.1324V18.4194H97.9146C98.8462 18.4194 99.6232 18.5581 100.246 18.8353C100.868 19.1126 101.336 19.4975 101.649 19.9899C101.962 20.4782 102.119 21.0411 102.119 21.6784C102.119 22.175 102.02 22.6116 101.822 22.9882C101.624 23.3606 101.352 23.6668 101.006 23.9069C100.664 24.1428 100.272 24.3104 99.8313 24.4097V24.5338C100.314 24.5545 100.765 24.6911 101.185 24.9435C101.61 25.196 101.954 25.5498 102.218 26.005C102.482 26.4561 102.614 26.9941 102.614 27.619C102.614 28.2935 102.447 28.8956 102.113 29.4254C101.783 29.9509 101.295 30.3668 100.647 30.6731C100 30.9793 99.2027 31.1324 98.2547 31.1324H92.8446ZM95.5218 28.935H97.7044C98.4505 28.935 98.9946 28.7922 99.3367 28.5066C99.6788 28.217 99.8499 27.8321 99.8499 27.352C99.8499 27.0003 99.7654 26.6899 99.5964 26.4209C99.4274 26.1519 99.1862 25.9409 98.873 25.7877C98.5638 25.6346 98.1949 25.5581 97.7662 25.5581H95.5218V28.935ZM95.5218 23.7393H97.5065C97.8734 23.7393 98.199 23.6751 98.4834 23.5468C98.772 23.4144 98.9987 23.2282 99.1636 22.9882C99.3326 22.7481 99.4171 22.4605 99.4171 22.1253C99.4171 21.666 99.2543 21.2956 98.9286 21.0142C98.6071 20.7328 98.1496 20.592 97.556 20.592H95.5218V23.7393Z" fill="white"/>
<path d="M116.11 24.7759C116.11 26.1623 115.849 27.3417 115.325 28.3142C114.806 29.2867 114.097 30.0296 113.198 30.5427C112.304 31.0517 111.298 31.3062 110.181 31.3062C109.056 31.3062 108.046 31.0497 107.151 30.5365C106.257 30.0233 105.55 29.2805 105.031 28.308C104.511 27.3355 104.252 26.1581 104.252 24.7759C104.252 23.3896 104.511 22.2101 105.031 21.2376C105.55 20.2651 106.257 19.5244 107.151 19.0153C108.046 18.5022 109.056 18.2456 110.181 18.2456C111.298 18.2456 112.304 18.5022 113.198 19.0153C114.097 19.5244 114.806 20.2651 115.325 21.2376C115.849 22.2101 116.11 23.3896 116.11 24.7759ZM113.396 24.7759C113.396 23.8779 113.262 23.1206 112.994 22.504C112.73 21.8874 112.357 21.4197 111.875 21.1011C111.393 20.7824 110.828 20.6231 110.181 20.6231C109.534 20.6231 108.969 20.7824 108.487 21.1011C108.005 21.4197 107.629 21.8874 107.362 22.504C107.098 23.1206 106.966 23.8779 106.966 24.7759C106.966 25.6739 107.098 26.4313 107.362 27.0479C107.629 27.6645 108.005 28.1321 108.487 28.4508C108.969 28.7694 109.534 28.9288 110.181 28.9288C110.828 28.9288 111.393 28.7694 111.875 28.4508C112.357 28.1321 112.73 27.6645 112.994 27.0479C113.262 26.4313 113.396 25.6739 113.396 24.7759Z" fill="white"/>
<path d="M120.127 18.4194L122.681 22.7523H122.78L125.346 18.4194H128.369L124.505 24.7759L128.456 31.1324H125.377L122.78 26.7934H122.681L120.084 31.1324H117.017L120.98 24.7759L117.091 18.4194H120.127Z" fill="white"/>
</svg>
