<svg width="195" height="49" viewBox="0 0 195 49" fill="none" xmlns="http://www.w3.org/2000/svg">
<g clip-path="url(#clip0_48_141)">
<path d="M58.8514 32.4331C56.6277 32.4331 54.768 31.6853 53.2724 30.1897C51.7964 28.6941 51.0585 26.8442 51.0585 24.6402C51.0585 22.4361 51.7964 20.5863 53.2724 19.0907C54.768 17.595 56.6277 16.8472 58.8514 16.8472C60.288 16.8472 61.5966 17.1916 62.7774 17.8804C63.9581 18.5692 64.8535 19.4941 65.4636 20.6551L62.187 22.5739C61.8918 21.9638 61.4392 21.4817 60.8292 21.1274C60.2388 20.7732 59.5697 20.5961 58.8219 20.5961C57.6805 20.5961 56.7359 20.9798 55.9881 21.7473C55.2403 22.4951 54.8664 23.4594 54.8664 24.6402C54.8664 25.7816 55.2403 26.7458 55.9881 27.533C56.7359 28.2808 57.6805 28.6547 58.8219 28.6547C59.5894 28.6547 60.2683 28.4874 60.8587 28.1529C61.4687 27.7987 61.9214 27.3165 62.2165 26.7065L65.5226 28.5957C64.8732 29.7764 63.9483 30.7112 62.7479 31.4C61.5671 32.0887 60.2683 32.4331 58.8514 32.4331Z" fill="white"/>
<path d="M71.4598 17.2605V19.7991C71.7944 18.8742 72.3651 18.1756 73.1719 17.7033C73.9787 17.2113 74.9037 16.9653 75.9467 16.9653V21.216C74.7856 21.0586 73.7426 21.2947 72.8177 21.9244C71.9124 22.5345 71.4598 23.548 71.4598 24.9649V32.0198H67.6519V17.2605H71.4598Z" fill="white"/>
<path d="M91.9721 26.2047H80.8435C81.3355 28.0545 82.7229 28.9794 85.0057 28.9794C86.4619 28.9794 87.564 28.4874 88.3118 27.5035L91.3817 29.2746C89.9254 31.3803 87.7804 32.4331 84.9466 32.4331C82.5064 32.4331 80.5483 31.6951 79.0724 30.2192C77.5965 28.7433 76.8585 26.8836 76.8585 24.6402C76.8585 22.4361 77.5866 20.5863 79.0429 19.0907C80.4795 17.595 82.349 16.8472 84.6514 16.8472C86.8358 16.8472 88.6168 17.595 89.9943 19.0907C91.4112 20.5863 92.1197 22.4361 92.1197 24.6402C92.1197 25.0534 92.0705 25.5749 91.9721 26.2047ZM80.7845 23.2528H88.3118C88.0953 22.2885 87.6525 21.5505 86.9834 21.0389C86.334 20.5272 85.5567 20.2714 84.6514 20.2714C83.6281 20.2714 82.7819 20.5371 82.1128 21.0684C81.4437 21.5801 81.001 22.3082 80.7845 23.2528Z" fill="white"/>
<path d="M105.88 19.0021V17.2605H109.688V32.0198H105.88V30.2782C104.738 31.7148 103.135 32.4331 101.068 32.4331C99.1003 32.4331 97.4079 31.6853 95.991 30.1897C94.5938 28.6744 93.8952 26.8246 93.8952 24.6402C93.8952 22.4755 94.5938 20.6355 95.991 19.1202C97.4079 17.6049 99.1003 16.8472 101.068 16.8472C103.135 16.8472 104.738 17.5655 105.88 19.0021ZM98.8543 27.6511C99.6218 28.4186 100.596 28.8023 101.777 28.8023C102.957 28.8023 103.932 28.4186 104.699 27.6511C105.486 26.8639 105.88 25.8603 105.88 24.6402C105.88 23.4201 105.486 22.4263 104.699 21.6588C103.932 20.8716 102.957 20.478 101.777 20.478C100.596 20.478 99.6218 20.8716 98.8543 21.6588C98.0868 22.4263 97.7031 23.4201 97.7031 24.6402C97.7031 25.8603 98.0868 26.8639 98.8543 27.6511Z" fill="white"/>
<path d="M121.583 17.2605V20.9208H118.247V27.0607C118.247 27.5724 118.375 27.9463 118.631 28.1824C118.887 28.4186 119.261 28.5563 119.753 28.5957C120.245 28.6154 120.855 28.6055 121.583 28.5662V32.0198C119.005 32.315 117.165 32.0789 116.063 31.3114C114.981 30.5242 114.439 29.1073 114.439 27.0607V20.9208H111.871V17.2605H114.439V14.2791L118.247 13.1279V17.2605H121.583Z" fill="white"/>
<path d="M126.157 15.4894C125.527 15.4894 124.976 15.2631 124.504 14.8104C124.051 14.3381 123.825 13.7871 123.825 13.1574C123.825 12.5277 124.051 11.9766 124.504 11.5043C124.976 11.032 125.527 10.7959 126.157 10.7959C126.806 10.7959 127.357 11.032 127.81 11.5043C128.282 11.9766 128.519 12.5277 128.519 13.1574C128.519 13.7871 128.282 14.3381 127.81 14.8104C127.357 15.2631 126.806 15.4894 126.157 15.4894ZM128.076 32.0198H124.268V17.2605H128.076V32.0198Z" fill="white"/>
<path d="M137.671 27.592L141.273 17.2605H145.464L139.856 32.0198H135.517L129.908 17.2605H134.1L137.671 27.592Z" fill="white"/>
<path d="M161.07 26.2047H149.942C150.433 28.0545 151.821 28.9794 154.104 28.9794C155.56 28.9794 156.662 28.4874 157.41 27.5035L160.48 29.2746C159.023 31.3803 156.878 32.4331 154.045 32.4331C151.604 32.4331 149.646 31.6951 148.17 30.2192C146.694 28.7433 145.956 26.8836 145.956 24.6402C145.956 22.4361 146.685 20.5863 148.141 19.0907C149.577 17.595 151.447 16.8472 153.749 16.8472C155.934 16.8472 157.715 17.595 159.092 19.0907C160.509 20.5863 161.218 22.4361 161.218 24.6402C161.218 25.0534 161.168 25.5749 161.07 26.2047ZM149.882 23.2528H157.41C157.193 22.2885 156.75 21.5505 156.081 21.0389C155.432 20.5272 154.655 20.2714 153.749 20.2714C152.726 20.2714 151.88 20.5371 151.211 21.0684C150.542 21.5801 150.099 22.3082 149.882 23.2528Z" fill="white"/>
<path d="M167.417 29.8945C167.417 30.5833 167.171 31.1736 166.679 31.6656C166.187 32.1576 165.597 32.4036 164.908 32.4036C164.219 32.4036 163.629 32.1576 163.137 31.6656C162.645 31.1736 162.399 30.5833 162.399 29.8945C162.399 29.2057 162.645 28.6154 163.137 28.1234C163.629 27.6314 164.219 27.3854 164.908 27.3854C165.597 27.3854 166.187 27.6314 166.679 28.1234C167.171 28.6154 167.417 29.2057 167.417 29.8945Z" fill="white"/>
<path d="M180.628 19.0021V17.2605H184.436V32.0198H180.628V30.2782C179.486 31.7148 177.883 32.4331 175.816 32.4331C173.848 32.4331 172.156 31.6853 170.739 30.1897C169.342 28.6744 168.643 26.8246 168.643 24.6402C168.643 22.4755 169.342 20.6355 170.739 19.1202C172.156 17.6049 173.848 16.8472 175.816 16.8472C177.883 16.8472 179.486 17.5655 180.628 19.0021ZM173.602 27.6511C174.37 28.4186 175.344 28.8023 176.525 28.8023C177.705 28.8023 178.68 28.4186 179.447 27.6511C180.234 26.8639 180.628 25.8603 180.628 24.6402C180.628 23.4201 180.234 22.4263 179.447 21.6588C178.68 20.8716 177.705 20.478 176.525 20.478C175.344 20.478 174.37 20.8716 173.602 21.6588C172.835 22.4263 172.451 23.4201 172.451 24.6402C172.451 25.8603 172.835 26.8639 173.602 27.6511Z" fill="white"/>
<path d="M189.778 15.4894C189.148 15.4894 188.597 15.2631 188.125 14.8104C187.672 14.3381 187.446 13.7871 187.446 13.1574C187.446 12.5277 187.672 11.9766 188.125 11.5043C188.597 11.032 189.148 10.7959 189.778 10.7959C190.427 10.7959 190.978 11.032 191.431 11.5043C191.903 11.9766 192.139 12.5277 192.139 13.1574C192.139 13.7871 191.903 14.3381 191.431 14.8104C190.978 15.2631 190.427 15.4894 189.778 15.4894ZM191.697 32.0198H187.889V17.2605H191.697V32.0198Z" fill="white"/>
<path fill-rule="evenodd" clip-rule="evenodd" d="M11.2777 32.1788C11.2777 32.505 11.1379 32.8779 10.8583 33.1109C9.55344 34.3691 5.07966 37.6779 0.699074 30.874C0.512666 30.641 0.466064 30.408 0.466064 30.1283C0.512666 27.4254 0.83888 12.0002 0.932084 7.94582C0.932084 7.01378 1.11849 6.08174 1.49131 5.24291C2.46995 2.95941 4.89325 -0.582336 10.6253 0.815723C13.1884 1.42155 14.8661 2.02737 15.9379 2.5866C17.0098 3.14582 16.8233 4.73029 15.7049 5.0565C13.9806 5.61572 11.8369 7.15359 11.6971 11.5342L11.2777 32.1788ZM42.6874 19.7828C42.1747 19.1303 41.5223 18.5245 40.8233 18.1051L21.9961 6.0818C21.5767 5.80219 21.1107 5.70898 20.598 5.70898C13.0019 6.0352 13.3281 11.1614 13.701 13.0721C13.7942 13.4915 14.0738 13.9109 14.4466 14.1439L32.0621 25.375C38.4 29.4294 34.6718 34.2294 34.6718 34.2294C34.6718 34.2294 36.0233 36.0002 41.9883 30.1284C46.2291 25.841 44.1786 21.7401 42.6874 19.7828ZM29.6389 26.074C29.3127 25.9808 28.9399 25.9808 28.6136 26.1672L10.2991 35.674C6.43111 37.6779 4.05441 36.5594 2.74956 35.2546C1.86412 34.4157 0.466064 35.0215 0.466064 36.2332C0.466064 37.4449 0.745676 39.2157 1.44471 41.7788C2.98257 47.4177 7.26995 47.8837 9.69325 47.6507C10.6253 47.5575 11.5107 47.2779 12.3496 46.8584C14.9425 45.5287 22.6336 41.5195 27.7098 38.8734C29.7498 37.81 31.3675 36.9667 32.0622 36.606C32.2952 36.4662 32.4816 36.2798 32.6214 36.0468C36.4428 28.9633 31.4098 26.6332 29.6389 26.074Z" fill="url(#paint0_linear_48_141)"/>
</g>
<defs>
<linearGradient id="paint0_linear_48_141" x1="0.466064" y1="0.498535" x2="39.2469" y2="34.0929" gradientUnits="userSpaceOnUse">
<stop stop-color="#320FE2"/>
<stop offset="0.2" stop-color="#8A00CE"/>
<stop offset="0.4" stop-color="#E00097"/>
<stop offset="0.6" stop-color="#FF0E61"/>
<stop offset="0.8" stop-color="#FF6E46"/>
<stop offset="1" stop-color="#FF8743"/>
</linearGradient>
<clipPath id="clip0_48_141">
<rect width="194.078" height="48" fill="white" transform="translate(0 0.0976562)"/>
</clipPath>
</defs>
</svg>
