<svg xmlns="http://www.w3.org/2000/svg" id="Layer_2" viewBox="0 0 277.68 34.22"><defs><style>.cls-1{fill:#ff43ca;}.cls-2{fill:#1a1a1a;}</style></defs><g id="Layer_1-2"><g><g><path class="cls-2" d="M6.67,6.39v7.57h7.52v6.02H6.67v13.87H0V.37H15.42l-2.34,6.02H6.67Z"></path><path class="cls-2" d="M35.06,30.83c-1.5,1.88-3.71,3.39-7.33,3.39s-5.83-1.51-7.33-3.39c-2.35-2.87-2.49-7.29-2.49-13.73s.14-10.86,2.49-13.73c1.5-1.88,3.71-3.38,7.33-3.38s5.83,1.5,7.33,3.38c2.35,2.87,2.49,7.29,2.49,13.73s-.14,10.86-2.49,13.73ZM29.99,7.33c-.38-.75-1.03-1.32-2.26-1.32s-1.88,.56-2.26,1.32c-.8,1.55-.89,5.73-.89,9.78s.09,8.23,.89,9.78c.38,.75,1.03,1.32,2.26,1.32s1.88-.56,2.26-1.32c.8-1.55,.89-5.73,.89-9.78s-.09-8.23-.89-9.78Z"></path><path class="cls-2" d="M57.9,31.45c-1.79,1.83-4.14,2.77-6.96,2.77s-5.17-.94-6.96-2.77c-1.6-1.65-2.49-3.9-2.49-6.58V.37h6.67V25.19c0,2.16,1.27,3.01,2.77,3.01s2.77-.85,2.77-3.01V.37h6.67V24.87c0,2.68-.89,4.93-2.49,6.58Z"></path><path class="cls-2" d="M79.1,33.84l-7.1-16.36v16.36h-6.67V.37h5.83l6.96,16.36V.37h6.67V33.84h-5.69Z"></path><path class="cls-2" d="M106.74,30.6c-1.5,1.74-3.57,3.24-7.33,3.24h-9.45V.37h9.45c3.76,0,5.83,1.51,7.33,3.24,2.35,2.68,2.49,7.29,2.49,13.44s-.14,10.86-2.49,13.54Zm-4.98-22.75c-.42-.85-1.27-1.46-2.49-1.46h-2.63V27.83h2.63c1.22,0,2.07-.61,2.49-1.46,.8-1.55,.8-5.59,.8-9.31s0-7.66-.8-9.21Z"></path><path class="cls-2" d="M113.41,33.84V.37h15.42V6.39h-8.74v7.57h7.52v6.02h-7.52v7.85h8.74v6.02h-15.42Z"></path><path class="cls-2" d="M145.89,33.84l-4.09-13.02h-2.21v13.02h-6.67V.37h9.54c7.29,0,9.31,3.81,9.31,10.2,0,3.57-.56,6.77-3.81,8.79l4.89,14.48h-6.96Zm-3.48-27.45h-2.82V14.81h2.82c2.54,0,2.68-2.3,2.68-4.23s-.14-4.18-2.68-4.18Z"></path><path class="cls-2" d="M172.25,31.73c-1.5,1.46-4.04,2.49-7.28,2.49s-5.74-.94-7.24-2.44c-1.65-1.65-2.21-4-2.21-7.43h6.68c0,1.36,.09,2.35,.7,3.06,.38,.42,1.03,.8,2.07,.8s1.69-.28,2.12-.85c.47-.56,.66-1.46,.66-2.82,0-3.2-.52-3.76-2.91-4.75l-4.23-1.74c-3.39-1.41-4.79-3.2-4.79-8.41,0-3.1,.99-5.69,3.01-7.43,1.6-1.36,3.62-2.12,6.16-2.12,2.96,0,5.12,.75,6.58,2.12,1.83,1.69,2.58,4.37,2.58,7.75h-6.67c0-1.17,0-2.25-.56-3.01-.37-.52-.94-.85-1.93-.85s-1.55,.38-1.93,.89c-.42,.56-.56,1.27-.56,2.4,0,2.12,.38,2.73,2.3,3.53l4.18,1.69c4.23,1.74,5.45,3.62,5.45,9.68,0,3.38-.42,5.73-2.16,7.43Z"></path><path class="cls-2" d="M186.59,33.84V.37h6.67V27.83h8.74v6.02h-15.42Z"></path><path class="cls-2" d="M221.18,33.84l-1.08-5.22h-7.71l-1.08,5.22h-6.96L212.95,.37h6.58l8.6,33.47h-6.96Zm-4.93-23.64l-2.59,12.41h5.17l-2.59-12.41Z"></path><path class="cls-2" d="M231,33.84V.37h6.67V33.84h-6.67Z"></path><path class="cls-2" d="M255.82,33.84l-4.09-13.02h-2.21v13.02h-6.67V.37h9.54c7.29,0,9.31,3.81,9.31,10.2,0,3.57-.56,6.77-3.81,8.79l4.89,14.48h-6.96Zm-3.48-27.45h-2.82V14.81h2.82c2.54,0,2.68-2.3,2.68-4.23s-.14-4.18-2.68-4.18Z"></path></g><rect class="cls-1" x="267.88" y="24.05" width="9.79" height="9.79"></rect></g></g></svg>